<svg width="36" height="36" viewBox="0 0 36 36" fill="none" xmlns="http://www.w3.org/2000/svg">
<path d="M34.9057 29.562C36.3648 31.0206 36.3648 33.4349 34.9057 34.8935C34.1509 35.6479 33.195 36 32.239 36C31.283 36 30.327 35.6479 29.5723 34.8935L18 23.3252L6.42767 34.8935C5.67295 35.6479 4.71698 36 3.76101 36C2.80503 36 1.84906 35.6479 1.09434 34.8935C-0.36478 33.4349 -0.36478 31.0206 1.09434 29.562L12.6667 17.9937L1.09434 6.42543C-0.36478 4.96682 -0.36478 2.55257 1.09434 1.09396C2.55346 -0.364652 4.96855 -0.364652 6.42767 1.09396L18 12.6622L29.5723 1.09396C31.0314 -0.364652 33.4465 -0.364652 34.9057 1.09396C36.3648 2.55257 36.3648 4.96682 34.9057 6.42543L23.3333 17.9937L34.9057 29.562Z" fill="#FF3333"/>
</svg>
