<svg width="24" height="34" viewBox="0 0 24 34" fill="none" xmlns="http://www.w3.org/2000/svg">
<path d="M0.338628 5.24846C3.01894 3.53888 5.69925 1.81986 8.37955 0.110286C8.66369 -0.0691722 8.94782 -0.0125012 9.13724 0.157512C9.30772 0.261409 9.42137 0.450313 9.42137 0.705332C9.42137 1.81986 9.42137 2.93439 9.42137 4.05837C17.5002 4.43618 23.8458 10.8967 23.9973 19.0195C24.1583 27.2935 17.0266 33.8484 8.97623 33.9996C6.4664 34.0468 6.4664 30.1648 8.97623 30.1176C15.1324 29.9948 19.9816 25.1589 20.1047 19.0195C20.2184 13.0313 15.2177 8.28036 9.42137 7.94034C9.42137 8.95097 9.42137 9.97105 9.42137 10.9817C9.42137 11.4917 8.82469 11.879 8.37008 11.5862C5.68977 9.8766 3.00947 8.15758 0.329157 6.448C-0.115983 6.16464 -0.106511 5.53182 0.338628 5.24846Z" fill="#333333" fill-opacity="0.75"/>
</svg>
