<svg width="24" height="36" viewBox="0 0 24 36" fill="none" xmlns="http://www.w3.org/2000/svg">
<path fill-rule="evenodd" clip-rule="evenodd" d="M10.3609 3.56459C17.6372 5.25949 23.0573 11.7848 23.0573 19.5768C23.0573 28.3815 16.1367 35.5689 7.43744 35.9972C6.11456 36.0623 5.11314 34.9853 5.11314 33.7669C5.11314 32.4998 6.12947 31.5614 7.28136 31.4983C13.5656 31.1542 18.5564 25.9478 18.5564 19.5768C18.5564 14.2906 15.1206 9.80622 10.3609 8.23572V9.26734C10.3609 10.4248 9.1079 11.1482 8.1055 10.5695L1.38385 6.68876C0.381447 6.11002 0.381449 4.66317 1.38385 4.08443L8.1055 0.203689C9.1079 -0.375051 10.3609 0.348375 10.3609 1.50585V3.56459Z" fill="#636363"/>
</svg>
