<svg width="24" height="36" viewBox="0 0 24 36" fill="none" xmlns="http://www.w3.org/2000/svg">
<path fill-rule="evenodd" clip-rule="evenodd" d="M13.3052 3.56459C6.02892 5.25949 0.608794 11.7848 0.608794 19.5768C0.608794 28.3815 7.52945 35.5689 16.2287 35.9972C17.5516 36.0623 18.553 34.9853 18.553 33.7669C18.553 32.4998 17.5367 31.5614 16.3848 31.4983C10.1005 31.1542 5.10971 25.9478 5.10971 19.5768C5.10971 14.2906 8.54554 9.80622 13.3052 8.23572V9.26734C13.3052 10.4248 14.5582 11.1482 15.5606 10.5695L22.2823 6.68876C23.2847 6.11002 23.2847 4.66317 22.2823 4.08443L15.5606 0.203689C14.5582 -0.375051 13.3052 0.348375 13.3052 1.50585V3.56459Z" fill="#636363"/>
</svg>
