<svg width="24" height="34" viewBox="0 0 24 34" fill="none" xmlns="http://www.w3.org/2000/svg">
<path d="M23.6614 5.24846C20.9811 3.53888 18.3008 1.81986 15.6204 0.110286C15.3363 -0.0691722 15.0522 -0.0125012 14.8628 0.157512C14.6923 0.261409 14.5786 0.450313 14.5786 0.705332C14.5786 1.81986 14.5786 2.93439 14.5786 4.05837C6.49982 4.43618 0.15421 10.8967 0.00267274 19.0195C-0.158335 27.2935 6.97337 33.8484 15.0238 33.9996C17.5336 34.0468 17.5336 30.1648 15.0238 30.1176C8.86758 29.9948 4.0184 25.1589 3.89528 19.0195C3.78162 13.0313 8.78234 8.28036 14.5786 7.94034C14.5786 8.95097 14.5786 9.97105 14.5786 10.9817C14.5786 11.4917 15.1753 11.879 15.6299 11.5862C18.3102 9.8766 20.9905 8.15758 23.6708 6.448C24.116 6.16464 24.1065 5.53182 23.6614 5.24846Z" fill="#333333" fill-opacity="0.75"/>
</svg>
